<svg width="1000" height="180" viewBox="0 0 1000 180" fill="none" xmlns="http://www.w3.org/2000/svg">
<rect x="60" width="880" height="20" fill="white"/>
<rect x="60" y="20" width="880" height="160" fill="#F8F8F8"/>
<rect x="940" y="20" width="40" height="20" fill="white"/>
<rect x="20" y="20" width="40" height="20" fill="white"/>
<rect width="40" height="20" transform="matrix(-1 0 0 1 980 40)" fill="#F8F8F8"/>
<rect x="20" y="40" width="40" height="20" fill="#F8F8F8"/>
<rect width="60" height="20" transform="matrix(-1 0 0 1 1000 60)" fill="#F8F8F8"/>
<rect y="60" width="60" height="20" fill="#F8F8F8"/>
<rect width="60" height="20" transform="matrix(-1 0 0 1 1000 80)" fill="#F8F8F8"/>
<rect y="80" width="60" height="20" fill="#F8F8F8"/>
<rect width="60" height="20" transform="matrix(-1 0 0 1 1000 100)" fill="#F8F8F8"/>
<rect y="100" width="60" height="20" fill="#F8F8F8"/>
<rect x="940" y="180" width="880" height="20" transform="rotate(180 940 180)" fill="#F0F0F0"/>
<rect x="980" y="160" width="960" height="20" transform="rotate(180 980 160)" fill="#F0F0F0"/>
<rect x="40" y="120" width="40" height="20" transform="rotate(180 40 120)" fill="#F0F0F0"/>
<rect x="60" y="140" width="20" height="20" transform="rotate(180 60 140)" fill="#F0F0F0"/>
<rect x="960" y="140" width="20" height="20" transform="rotate(180 960 140)" fill="#F0F0F0"/>
<rect y="100" width="40" height="20" transform="rotate(-90 0 100)" fill="#F0F0F0"/>
<rect x="980" y="100" width="40" height="20" transform="rotate(-90 980 100)" fill="#F0F0F0"/>
<rect x="20" y="160" width="40" height="20" transform="rotate(-90 20 160)" fill="#F0F0F0"/>
<rect x="960" y="160" width="40" height="20" transform="rotate(-90 960 160)" fill="#F0F0F0"/>
<rect x="1000" y="120" width="40" height="20" transform="rotate(180 1000 120)" fill="#F0F0F0"/>
</svg>
