<svg width="366" height="222" viewBox="0 0 366 222" fill="none" xmlns="http://www.w3.org/2000/svg">
<path d="M59.3516 177.602V192.401H306.648V177.602H59.3516ZM306.648 177.601H336.324V162.801H306.648V177.601ZM29.6758 162.801V177.601H59.3516V162.801H29.6758ZM336.324 162.8H351.162V133.203H336.324V162.8ZM14.8379 133.203V162.8H29.6758V133.203H14.8379ZM351.162 133.202H366V118.402H351.162V133.202ZM0 118.402V133.202H14.8379V118.402H0ZM351.162 118.401H366V103.602H351.162V118.401ZM0 103.602V118.401H14.8379V103.602H0ZM351.162 103.601H366V88.8008H351.162V103.601ZM0 88.8008V103.601H14.8379V88.8008H0ZM336.324 88.7998H351.162V59.2031H336.324V88.7998ZM14.8379 59.2031V88.7998H29.6758V59.2031H14.8379ZM59.3516 29.6016V44.3984H29.6758V59.1982H59.3516V44.4014H306.648V59.1982H336.324V44.3984H306.648V29.6016H59.3516Z" fill="#2F3450"/>
<path d="M59.3516 162.801V177.601H306.648V162.801H59.3516ZM29.6758 162.8H336.324V133.203H29.6758V162.8ZM14.8379 133.202H351.162V118.402H14.8379V133.202ZM14.8379 118.401H351.162V88.8047H14.8379V118.401ZM29.6758 88.7998H336.324V59.2031H29.6758V88.7998ZM59.3516 59.2021H306.648V44.4023H59.3516V59.2021Z" fill="#01E37F"/>
<path d="M59.3513 162.805H185.473V177.605H59.3513V162.805Z" fill="#01CB72"/>
<path d="M59.3513 44.4023H185.473V59.2023H59.3513V44.4023Z" fill="#46FFAD"/>
<path d="M29.6758 148.004H59.3515V162.804H29.6758V148.004Z" fill="#01CB72"/>
<path d="M29.6758 59.2031H59.3515V74.0031H29.6758V59.2031Z" fill="#46FFAD"/>
<path d="M29.6758 133.203H44.5136V148.003H29.6758V133.203Z" fill="#01CB72"/>
<path d="M336.324 133.203H321.486V148.003H336.324V133.203Z" fill="#01CB72"/>
<path d="M14.8379 118.402H29.6757V133.202H14.8379V118.402Z" fill="#01CB72"/>
<path d="M351.162 118.402H336.324V133.202H351.162V118.402Z" fill="#01CB72"/>
<path d="M306.649 148.004H336.324V162.804H306.649V148.004Z" fill="#01CB72"/>
<path d="M306.649 162.805H180.527V177.605H306.649V162.805Z" fill="#01CB72"/>
<path d="M306.649 44.4023H180.527V59.2023H306.649V44.4023Z" fill="#46FFAD"/>
<rect x="202.784" y="207.199" width="14.8378" height="14.8" fill="#2F3450"/>
<rect x="173.108" y="14.8008" width="14.8378" height="14.8" fill="#2F3450"/>
<rect x="173.108" y="192.398" width="14.8378" height="14.8" fill="#2F3450"/>
<rect x="173.108" y="29.6016" width="14.8" height="14.8378" transform="rotate(90 173.108 29.6016)" fill="#2F3450"/>
<rect x="173.108" y="162.797" width="14.8" height="14.8378" transform="rotate(90 173.108 162.797)" fill="#2F3450"/>
<rect x="351.162" y="162.797" width="14.8" height="14.8378" transform="rotate(90 351.162 162.797)" fill="#2F3450"/>
<rect x="158.271" y="88.8008" width="14.8" height="14.8378" transform="rotate(90 158.271 88.8008)" fill="#2F3450"/>
<rect x="158.271" y="74" width="14.8" height="14.8378" transform="rotate(90 158.271 74)" fill="#2F3450"/>
<rect x="158.271" y="59.2031" width="14.8" height="14.8378" transform="rotate(90 158.271 59.2031)" fill="#2F3450"/>
<rect x="366" y="74" width="14.8" height="14.8378" transform="rotate(90 366 74)" fill="#2F3450"/>
<rect x="366" y="59.2031" width="14.8" height="14.8378" transform="rotate(90 366 59.2031)" fill="#2F3450"/>
<rect x="158.271" y="118.402" width="14.8" height="14.8378" transform="rotate(90 158.271 118.402)" fill="#2F3450"/>
<rect x="366" y="103.602" width="14.8" height="14.8378" transform="rotate(90 366 103.602)" fill="#2F3450"/>
<rect x="351.162" y="29.6016" width="14.8" height="14.8378" transform="rotate(90 351.162 29.6016)" fill="#2F3450"/>
<rect x="306.649" y="14.8008" width="14.8378" height="14.8" fill="#2F3450"/>
<rect x="291.811" y="14.8008" width="14.8378" height="14.8" fill="#3AA1E4"/>
<rect x="336.324" y="44.3984" width="14.8378" height="14.8" fill="#3AA1E4"/>
<rect x="306.649" y="192.398" width="14.8378" height="14.8" fill="#3AA1E4"/>
<rect x="306.649" y="192.398" width="14.8378" height="14.8" fill="#2F3450"/>
<rect x="291.811" y="207.199" width="14.8378" height="14.8" fill="#2F3450"/>
<rect x="291.811" y="192.398" width="14.8378" height="14.8" fill="#3AA1E4"/>
<rect x="232.46" y="207.199" width="14.8378" height="14.8" fill="#2F3450"/>
<rect x="262.135" y="207.199" width="14.8378" height="14.8" fill="#2F3450"/>
<rect x="217.622" y="207.199" width="14.8378" height="14.8" fill="#2F3450"/>
<rect x="187.946" y="14.8008" width="14.8378" height="14.8" fill="#2F3450"/>
<rect x="187.946" y="192.398" width="14.8378" height="14.8" fill="#2F3450"/>
<rect x="173.108" y="44.3984" width="14.8" height="14.8378" transform="rotate(90 173.108 44.3984)" fill="#2F3450"/>
<rect x="173.108" y="177.602" width="14.8" height="14.8378" transform="rotate(90 173.108 177.602)" fill="#2F3450"/>
<rect x="351.162" y="177.602" width="14.8" height="14.8378" transform="rotate(90 351.162 177.602)" fill="#2F3450"/>
<rect x="158.271" y="103.602" width="14.8" height="14.8378" transform="rotate(90 158.271 103.602)" fill="#2F3450"/>
<rect x="366" y="88.8008" width="14.8" height="14.8378" transform="rotate(90 366 88.8008)" fill="#2F3450"/>
<rect x="158.271" y="133.203" width="14.8" height="14.8378" transform="rotate(90 158.271 133.203)" fill="#2F3450"/>
<rect x="158.271" y="148" width="14.8" height="14.8378" transform="rotate(90 158.271 148)" fill="#2F3450"/>
<rect x="366" y="118.402" width="14.8" height="14.8378" transform="rotate(90 366 118.402)" fill="#2F3450"/>
<rect x="366" y="133.203" width="14.8" height="14.8378" transform="rotate(90 366 133.203)" fill="#2F3450"/>
<rect x="366" y="148" width="14.8" height="14.8378" transform="rotate(90 366 148)" fill="#2F3450"/>
<rect x="351.162" y="44.3984" width="14.8" height="14.8378" transform="rotate(90 351.162 44.3984)" fill="#2F3450"/>
<rect x="321.487" y="14.8008" width="14.8378" height="14.8" fill="#2F3450"/>
<rect x="321.487" y="192.398" width="14.8378" height="14.8" fill="#2F3450"/>
<rect x="247.297" y="207.199" width="14.8378" height="14.8" fill="#2F3450"/>
<path d="M291.811 0H306.649V14.8H291.811V0Z" fill="#2F3450"/>
<path d="M202.784 0H217.622V14.8H202.784V0Z" fill="#2F3450"/>
<path d="M232.46 0H247.297V14.8H232.46V0Z" fill="#2F3450"/>
<path d="M262.135 0H276.973V14.8H262.135V0Z" fill="#2F3450"/>
<path d="M217.622 0H232.46V14.8H217.622V0Z" fill="#2F3450"/>
<path d="M247.297 0H262.135V14.8H247.297V0Z" fill="#2F3450"/>
<path d="M276.973 0H291.811V14.8H276.973V0Z" fill="#2F3450"/>
<path d="M200.311 66.6016H215.149V81.4016H200.311V66.6016Z" fill="#3AA1E4"/>
<path d="M229.987 66.6016H244.825V81.4016H229.987V66.6016Z" fill="#3AA1E4"/>
<path d="M259.662 66.6016H274.5V81.4016H259.662V66.6016Z" fill="#3AA1E4"/>
<path d="M215.149 66.6016H229.987V81.4016H215.149V66.6016Z" fill="#3AA1E4"/>
<path d="M244.825 66.6016H259.662V81.4016H244.825V66.6016Z" fill="#3AA1E4"/>
<path d="M274.5 66.6016H289.338V81.4016H274.5V66.6016Z" fill="#3AA1E4"/>
<path d="M202.784 44.3984H217.622V59.1984H202.784V44.3984Z" fill="#3AA1E4"/>
<path d="M232.46 44.3984H247.297V59.1984H232.46V44.3984Z" fill="#3AA1E4"/>
<path d="M262.135 44.3984H276.973V59.1984H262.135V44.3984Z" fill="#3AA1E4"/>
<path d="M217.622 44.3984H232.46V59.1984H217.622V44.3984Z" fill="#3AA1E4"/>
<path d="M247.297 44.3984H262.135V59.1984H247.297V44.3984Z" fill="#3AA1E4"/>
<path d="M276.973 44.3984H291.811V59.1984H276.973V44.3984Z" fill="#3AA1E4"/>
<path d="M173.108 44.3984H187.946V59.1984H173.108V44.3984Z" fill="#3AA1E4"/>
<path d="M202.784 44.3984H217.622V59.1984H202.784V44.3984Z" fill="#3AA1E4"/>
<path d="M232.46 44.3984H247.298V59.1984H232.46V44.3984Z" fill="#3AA1E4"/>
<path d="M187.946 44.3984H202.784V59.1984H187.946V44.3984Z" fill="#3AA1E4"/>
<path d="M217.622 44.3984H232.46V59.1984H217.622V44.3984Z" fill="#3AA1E4"/>
<path d="M247.298 44.3984H262.135V59.1984H247.298V44.3984Z" fill="#3AA1E4"/>
<path d="M173.108 29.6016H187.946V44.4016H173.108V29.6016Z" fill="#3AA1E4"/>
<path d="M202.784 29.6016H217.622V44.4016H202.784V29.6016Z" fill="#3AA1E4"/>
<path d="M232.46 29.6016H247.298V44.4016H232.46V29.6016Z" fill="#3AA1E4"/>
<path d="M187.946 29.6016H202.784V44.4016H187.946V29.6016Z" fill="#3AA1E4"/>
<path d="M217.622 29.6016H232.46V44.4016H217.622V29.6016Z" fill="#3AA1E4"/>
<path d="M247.298 29.6016H262.135V44.4016H247.298V29.6016Z" fill="#3AA1E4"/>
<path d="M202.784 14.8008H217.622V29.6008H202.784V14.8008Z" fill="#3AA1E4"/>
<path d="M232.46 14.8008H247.297V29.6008H232.46V14.8008Z" fill="#3AA1E4"/>
<path d="M262.135 14.8008H276.973V29.6008H262.135V14.8008Z" fill="#3AA1E4"/>
<path d="M217.622 14.8008H232.46V29.6008H217.622V14.8008Z" fill="#3AA1E4"/>
<path d="M247.297 14.8008H262.135V29.6008H247.297V14.8008Z" fill="#3AA1E4"/>
<path d="M276.973 14.8008H291.811V29.6008H276.973V14.8008Z" fill="#3AA1E4"/>
<path d="M247.297 29.6016H262.135V44.4016H247.297V29.6016Z" fill="#3AA1E4"/>
<path d="M276.973 29.6016H291.811V44.4016H276.973V29.6016Z" fill="#3AA1E4"/>
<path d="M306.649 29.6016H321.487V44.4016H306.649V29.6016Z" fill="#3AA1E4"/>
<path d="M262.135 29.6016H276.973V44.4016H262.135V29.6016Z" fill="#3AA1E4"/>
<path d="M291.811 29.6016H306.649V44.4016H291.811V29.6016Z" fill="#3AA1E4"/>
<path d="M321.487 29.6016H336.324V44.4016H321.487V29.6016Z" fill="#3AA1E4"/>
<path d="M232.46 44.3984H247.298V59.1984H232.46V44.3984Z" fill="#3AA1E4"/>
<path d="M262.135 44.3984H276.973V59.1984H262.135V44.3984Z" fill="#3AA1E4"/>
<path d="M291.811 44.3984H306.649V59.1984H291.811V44.3984Z" fill="#3AA1E4"/>
<path d="M247.298 44.3984H262.135V59.1984H247.298V44.3984Z" fill="#3AA1E4"/>
<path d="M276.973 44.3984H291.811V59.1984H276.973V44.3984Z" fill="#3AA1E4"/>
<path d="M306.649 44.3984H321.487V59.1984H306.649V44.3984Z" fill="#3AA1E4"/>
<path d="M247.297 44.3984H262.135V59.1984H247.297V44.3984Z" fill="#3AA1E4"/>
<path d="M276.973 44.3984H291.811V59.1984H276.973V44.3984Z" fill="#3AA1E4"/>
<path d="M306.649 44.3984H321.487V59.1984H306.649V44.3984Z" fill="#3AA1E4"/>
<path d="M262.135 44.3984H276.973V59.1984H262.135V44.3984Z" fill="#3AA1E4"/>
<path d="M291.811 44.3984H306.649V59.1984H291.811V44.3984Z" fill="#3AA1E4"/>
<path d="M321.487 44.3984H336.324V59.1984H321.487V44.3984Z" fill="#3AA1E4"/>
<path d="M202.784 59.2031H217.622V74.0031H202.784V59.2031Z" fill="#3AA1E4"/>
<path d="M232.46 59.2031H247.297V74.0031H232.46V59.2031Z" fill="#3AA1E4"/>
<path d="M262.135 59.2031H276.973V74.0031H262.135V59.2031Z" fill="#3AA1E4"/>
<path d="M217.622 59.2031H232.46V74.0031H217.622V59.2031Z" fill="#3AA1E4"/>
<path d="M247.297 59.2031H262.135V74.0031H247.297V59.2031Z" fill="#3AA1E4"/>
<path d="M276.973 59.2031H291.811V74.0031H276.973V59.2031Z" fill="#3AA1E4"/>
<path d="M173.108 59.2031H187.946V74.0031H173.108V59.2031Z" fill="#3AA1E4"/>
<path d="M202.784 59.2031H217.622V74.0031H202.784V59.2031Z" fill="#3AA1E4"/>
<path d="M232.46 59.2031H247.298V74.0031H232.46V59.2031Z" fill="#3AA1E4"/>
<path d="M187.946 59.2031H202.784V74.0031H187.946V59.2031Z" fill="#3AA1E4"/>
<path d="M217.622 59.2031H232.46V74.0031H217.622V59.2031Z" fill="#3AA1E4"/>
<path d="M247.298 59.2031H262.135V74.0031H247.298V59.2031Z" fill="#3AA1E4"/>
<path d="M158.271 59.2031H173.108V74.0031H158.271V59.2031Z" fill="#3AA1E4"/>
<path d="M187.946 59.2031H202.784V74.0031H187.946V59.2031Z" fill="#3AA1E4"/>
<path d="M217.622 59.2031H232.46V74.0031H217.622V59.2031Z" fill="#3AA1E4"/>
<path d="M173.108 59.2031H187.946V74.0031H173.108V59.2031Z" fill="#3AA1E4"/>
<path d="M202.784 59.2031H217.622V74.0031H202.784V59.2031Z" fill="#3AA1E4"/>
<path d="M232.46 59.2031H247.298V74.0031H232.46V59.2031Z" fill="#3AA1E4"/>
<path d="M232.46 59.2031H247.298V74.0031H232.46V59.2031Z" fill="#3AA1E4"/>
<path d="M262.135 59.2031H276.973V74.0031H262.135V59.2031Z" fill="#3AA1E4"/>
<path d="M291.811 59.2031H306.649V74.0031H291.811V59.2031Z" fill="#3AA1E4"/>
<path d="M247.298 59.2031H262.135V74.0031H247.298V59.2031Z" fill="#3AA1E4"/>
<path d="M276.973 59.2031H291.811V74.0031H276.973V59.2031Z" fill="#3AA1E4"/>
<path d="M306.649 59.2031H321.487V74.0031H306.649V59.2031Z" fill="#3AA1E4"/>
<path d="M262.135 59.2031H276.973V74.0031H262.135V59.2031Z" fill="#3AA1E4"/>
<path d="M291.811 59.2031H306.649V74.0031H291.811V59.2031Z" fill="#3AA1E4"/>
<path d="M321.487 59.2031H336.324V74.0031H321.487V59.2031Z" fill="#3AA1E4"/>
<path d="M276.973 59.2031H291.811V74.0031H276.973V59.2031Z" fill="#3AA1E4"/>
<path d="M306.649 59.2031H321.487V74.0031H306.649V59.2031Z" fill="#3AA1E4"/>
<path d="M336.324 59.2031H351.162V74.0031H336.324V59.2031Z" fill="#3AA1E4"/>
<path d="M202.784 74H217.622V88.8H202.784V74Z" fill="#3AA1E4"/>
<path d="M232.46 74H247.297V88.8H232.46V74Z" fill="#3AA1E4"/>
<path d="M262.135 74H276.973V88.8H262.135V74Z" fill="#3AA1E4"/>
<path d="M217.622 74H232.46V88.8H217.622V74Z" fill="#3AA1E4"/>
<path d="M247.297 74H262.135V88.8H247.297V74Z" fill="#3AA1E4"/>
<path d="M276.973 74H291.811V88.8H276.973V74Z" fill="#3AA1E4"/>
<path d="M247.297 74H262.135V88.8H247.297V74Z" fill="#3AA1E4"/>
<path d="M276.973 74H291.811V88.8H276.973V74Z" fill="#3AA1E4"/>
<path d="M306.649 74H321.487V88.8H306.649V74Z" fill="#3AA1E4"/>
<path d="M262.135 74H276.973V88.8H262.135V74Z" fill="#3AA1E4"/>
<path d="M291.811 74H306.649V88.8H291.811V74Z" fill="#3AA1E4"/>
<path d="M321.487 74H336.324V88.8H321.487V74Z" fill="#3AA1E4"/>
<path d="M262.135 74H276.973V88.8H262.135V74Z" fill="#3AA1E4"/>
<path d="M291.811 74H306.649V88.8H291.811V74Z" fill="#3AA1E4"/>
<path d="M321.487 74H336.324V88.8H321.487V74Z" fill="#3AA1E4"/>
<path d="M276.973 74H291.811V88.8H276.973V74Z" fill="#3AA1E4"/>
<path d="M306.649 74H321.487V88.8H306.649V74Z" fill="#3AA1E4"/>
<path d="M336.324 74H351.162V88.8H336.324V74Z" fill="#3AA1E4"/>
<path d="M158.271 74H173.108V88.8H158.271V74Z" fill="#3AA1E4"/>
<path d="M187.946 74H202.784V88.8H187.946V74Z" fill="#3AA1E4"/>
<path d="M217.622 74H232.46V88.8H217.622V74Z" fill="#3AA1E4"/>
<path d="M173.108 74H187.946V88.8H173.108V74Z" fill="#3AA1E4"/>
<path d="M202.784 74H217.622V88.8H202.784V74Z" fill="#3AA1E4"/>
<path d="M232.46 74H247.298V88.8H232.46V74Z" fill="#3AA1E4"/>
<path d="M202.784 88.8008H217.622V103.601H202.784V88.8008Z" fill="#3AA1E4"/>
<path d="M232.46 88.8008H247.297V103.601H232.46V88.8008Z" fill="#3AA1E4"/>
<path d="M262.135 88.8008H276.973V103.601H262.135V88.8008Z" fill="#3AA1E4"/>
<path d="M217.622 88.8008H232.46V103.601H217.622V88.8008Z" fill="#3AA1E4"/>
<path d="M247.297 88.8008H262.135V103.601H247.297V88.8008Z" fill="#3AA1E4"/>
<path d="M276.973 88.8008H291.811V103.601H276.973V88.8008Z" fill="#3AA1E4"/>
<path d="M247.297 88.8008H262.135V103.601H247.297V88.8008Z" fill="#3AA1E4"/>
<path d="M276.973 88.8008H291.811V103.601H276.973V88.8008Z" fill="#3AA1E4"/>
<path d="M306.649 88.8008H321.487V103.601H306.649V88.8008Z" fill="#3AA1E4"/>
<path d="M262.135 88.8008H276.973V103.601H262.135V88.8008Z" fill="#3AA1E4"/>
<path d="M291.811 88.8008H306.649V103.601H291.811V88.8008Z" fill="#3AA1E4"/>
<path d="M321.487 88.8008H336.324V103.601H321.487V88.8008Z" fill="#3AA1E4"/>
<path d="M262.135 88.8008H276.973V103.601H262.135V88.8008Z" fill="#3AA1E4"/>
<path d="M291.811 88.8008H306.649V103.601H291.811V88.8008Z" fill="#3AA1E4"/>
<path d="M321.487 88.8008H336.324V103.601H321.487V88.8008Z" fill="#3AA1E4"/>
<path d="M276.973 88.8008H291.811V103.601H276.973V88.8008Z" fill="#3AA1E4"/>
<path d="M306.649 88.8008H321.487V103.601H306.649V88.8008Z" fill="#3AA1E4"/>
<path d="M336.324 88.8008H351.162V103.601H336.324V88.8008Z" fill="#3AA1E4"/>
<path d="M158.271 88.8008H173.108V103.601H158.271V88.8008Z" fill="#3AA1E4"/>
<path d="M187.946 88.8008H202.784V103.601H187.946V88.8008Z" fill="#3AA1E4"/>
<path d="M217.622 88.8008H232.46V103.601H217.622V88.8008Z" fill="#3AA1E4"/>
<path d="M173.108 88.8008H187.946V103.601H173.108V88.8008Z" fill="#3AA1E4"/>
<path d="M202.784 88.8008H217.622V103.601H202.784V88.8008Z" fill="#3AA1E4"/>
<path d="M232.46 88.8008H247.298V103.601H232.46V88.8008Z" fill="#3AA1E4"/>
<path d="M202.784 103.602H217.622V118.402H202.784V103.602Z" fill="#3AA1E4"/>
<path d="M232.46 103.602H247.297V118.402H232.46V103.602Z" fill="#3AA1E4"/>
<path d="M262.135 103.602H276.973V118.402H262.135V103.602Z" fill="#3AA1E4"/>
<path d="M217.622 103.602H232.46V118.402H217.622V103.602Z" fill="#3AA1E4"/>
<path d="M247.297 103.602H262.135V118.402H247.297V103.602Z" fill="#3AA1E4"/>
<path d="M276.973 103.602H291.811V118.402H276.973V103.602Z" fill="#3AA1E4"/>
<path d="M247.297 103.602H262.135V118.402H247.297V103.602Z" fill="#3AA1E4"/>
<path d="M276.973 103.602H291.811V118.402H276.973V103.602Z" fill="#3AA1E4"/>
<path d="M306.649 103.602H321.487V118.402H306.649V103.602Z" fill="#3AA1E4"/>
<path d="M262.135 103.602H276.973V118.402H262.135V103.602Z" fill="#3AA1E4"/>
<path d="M291.811 103.602H306.649V118.402H291.811V103.602Z" fill="#3AA1E4"/>
<path d="M321.487 103.602H336.324V118.402H321.487V103.602Z" fill="#3AA1E4"/>
<path d="M262.135 103.602H276.973V118.402H262.135V103.602Z" fill="#3AA1E4"/>
<path d="M291.811 103.602H306.649V118.402H291.811V103.602Z" fill="#3AA1E4"/>
<path d="M321.487 103.602H336.324V118.402H321.487V103.602Z" fill="#3AA1E4"/>
<path d="M276.973 103.602H291.811V118.402H276.973V103.602Z" fill="#3AA1E4"/>
<path d="M306.649 103.602H321.487V118.402H306.649V103.602Z" fill="#3AA1E4"/>
<path d="M336.324 103.602H351.162V118.402H336.324V103.602Z" fill="#3AA1E4"/>
<path d="M158.271 103.602H173.108V118.402H158.271V103.602Z" fill="#3AA1E4"/>
<path d="M187.946 103.602H202.784V118.402H187.946V103.602Z" fill="#3AA1E4"/>
<path d="M217.622 103.602H232.46V118.402H217.622V103.602Z" fill="#3AA1E4"/>
<path d="M173.108 103.602H187.946V118.402H173.108V103.602Z" fill="#3AA1E4"/>
<path d="M202.784 103.602H217.622V118.402H202.784V103.602Z" fill="#3AA1E4"/>
<path d="M232.46 103.602H247.298V118.402H232.46V103.602Z" fill="#3AA1E4"/>
<path d="M202.784 118.402H217.622V133.202H202.784V118.402Z" fill="#3AA1E4"/>
<path d="M232.46 118.402H247.297V133.202H232.46V118.402Z" fill="#3AA1E4"/>
<path d="M262.135 118.402H276.973V133.202H262.135V118.402Z" fill="#3AA1E4"/>
<path d="M217.622 118.402H232.46V133.202H217.622V118.402Z" fill="#3AA1E4"/>
<path d="M247.297 118.402H262.135V133.202H247.297V118.402Z" fill="#3AA1E4"/>
<path d="M276.973 118.402H291.811V133.202H276.973V118.402Z" fill="#3AA1E4"/>
<path d="M247.297 118.402H262.135V133.202H247.297V118.402Z" fill="#3AA1E4"/>
<path d="M276.973 118.402H291.811V133.202H276.973V118.402Z" fill="#3AA1E4"/>
<path d="M306.649 118.402H321.487V133.202H306.649V118.402Z" fill="#3AA1E4"/>
<path d="M262.135 118.402H276.973V133.202H262.135V118.402Z" fill="#3AA1E4"/>
<path d="M291.811 118.402H306.649V133.202H291.811V118.402Z" fill="#3AA1E4"/>
<path d="M321.487 118.402H336.324V133.202H321.487V118.402Z" fill="#3AA1E4"/>
<path d="M262.135 118.402H276.973V133.202H262.135V118.402Z" fill="#3AA1E4"/>
<path d="M291.811 118.402H306.649V133.202H291.811V118.402Z" fill="#3AA1E4"/>
<path d="M321.487 118.402H336.324V133.202H321.487V118.402Z" fill="#3AA1E4"/>
<path d="M276.973 118.402H291.811V133.202H276.973V118.402Z" fill="#3AA1E4"/>
<path d="M306.649 118.402H321.487V133.202H306.649V118.402Z" fill="#3AA1E4"/>
<path d="M336.324 118.402H351.162V133.202H336.324V118.402Z" fill="#3AA1E4"/>
<path d="M158.271 118.402H173.108V133.202H158.271V118.402Z" fill="#3AA1E4"/>
<path d="M187.946 118.402H202.784V133.202H187.946V118.402Z" fill="#3AA1E4"/>
<path d="M217.622 118.402H232.46V133.202H217.622V118.402Z" fill="#3AA1E4"/>
<path d="M173.108 118.402H187.946V133.202H173.108V118.402Z" fill="#3AA1E4"/>
<path d="M202.784 118.402H217.622V133.202H202.784V118.402Z" fill="#3AA1E4"/>
<path d="M232.46 118.402H247.298V133.202H232.46V118.402Z" fill="#3AA1E4"/>
<path d="M202.784 133.203H217.622V148.003H202.784V133.203Z" fill="#3AA1E4"/>
<path d="M232.46 133.203H247.297V148.003H232.46V133.203Z" fill="#3AA1E4"/>
<path d="M262.135 133.203H276.973V148.003H262.135V133.203Z" fill="#3AA1E4"/>
<path d="M217.622 133.203H232.46V148.003H217.622V133.203Z" fill="#3AA1E4"/>
<path d="M247.297 133.203H262.135V148.003H247.297V133.203Z" fill="#3AA1E4"/>
<path d="M276.973 133.203H291.811V148.003H276.973V133.203Z" fill="#3AA1E4"/>
<path d="M247.297 133.203H262.135V148.003H247.297V133.203Z" fill="#3AA1E4"/>
<path d="M276.973 133.203H291.811V148.003H276.973V133.203Z" fill="#3AA1E4"/>
<path d="M306.649 133.203H321.487V148.003H306.649V133.203Z" fill="#3AA1E4"/>
<path d="M262.135 133.203H276.973V148.003H262.135V133.203Z" fill="#3AA1E4"/>
<path d="M291.811 133.203H306.649V148.003H291.811V133.203Z" fill="#3AA1E4"/>
<path d="M321.487 133.203H336.324V148.003H321.487V133.203Z" fill="#3AA1E4"/>
<path d="M262.135 133.203H276.973V148.003H262.135V133.203Z" fill="#3AA1E4"/>
<path d="M291.811 133.203H306.649V148.003H291.811V133.203Z" fill="#3AA1E4"/>
<path d="M321.487 133.203H336.324V148.003H321.487V133.203Z" fill="#3AA1E4"/>
<path d="M276.973 133.203H291.811V148.003H276.973V133.203Z" fill="#3AA1E4"/>
<path d="M306.649 133.203H321.487V148.003H306.649V133.203Z" fill="#3AA1E4"/>
<path d="M336.324 133.203H351.162V148.003H336.324V133.203Z" fill="#3AA1E4"/>
<path d="M158.271 133.203H173.108V148.003H158.271V133.203Z" fill="#3AA1E4"/>
<path d="M187.946 133.203H202.784V148.003H187.946V133.203Z" fill="#3AA1E4"/>
<path d="M217.622 133.203H232.46V148.003H217.622V133.203Z" fill="#3AA1E4"/>
<path d="M173.108 133.203H187.946V148.003H173.108V133.203Z" fill="#3AA1E4"/>
<path d="M202.784 133.203H217.622V148.003H202.784V133.203Z" fill="#3AA1E4"/>
<path d="M232.46 133.203H247.298V148.003H232.46V133.203Z" fill="#3AA1E4"/>
<path d="M202.784 148H217.622V162.8H202.784V148Z" fill="#3AA1E4"/>
<path d="M232.46 148H247.297V162.8H232.46V148Z" fill="#3AA1E4"/>
<path d="M262.135 148H276.973V162.8H262.135V148Z" fill="#3AA1E4"/>
<path d="M217.622 148H232.46V162.8H217.622V148Z" fill="#3AA1E4"/>
<path d="M247.297 148H262.135V162.8H247.297V148Z" fill="#3AA1E4"/>
<path d="M276.973 148H291.811V162.8H276.973V148Z" fill="#3AA1E4"/>
<path d="M232.46 148H247.298V162.8H232.46V148Z" fill="#3AA1E4"/>
<path d="M262.135 148H276.973V162.8H262.135V148Z" fill="#3AA1E4"/>
<path d="M291.811 148H306.649V162.8H291.811V148Z" fill="#3AA1E4"/>
<path d="M247.298 148H262.135V162.8H247.298V148Z" fill="#3AA1E4"/>
<path d="M276.973 148H291.811V162.8H276.973V148Z" fill="#3AA1E4"/>
<path d="M306.649 148H321.487V162.8H306.649V148Z" fill="#3AA1E4"/>
<path d="M262.135 148H276.973V162.8H262.135V148Z" fill="#3AA1E4"/>
<path d="M291.811 148H306.649V162.8H291.811V148Z" fill="#3AA1E4"/>
<path d="M321.487 148H336.324V162.8H321.487V148Z" fill="#3AA1E4"/>
<path d="M276.973 148H291.811V162.8H276.973V148Z" fill="#3AA1E4"/>
<path d="M306.649 148H321.487V162.8H306.649V148Z" fill="#3AA1E4"/>
<path d="M336.324 148H351.162V162.8H336.324V148Z" fill="#3AA1E4"/>
<path d="M173.108 148H187.946V162.8H173.108V148Z" fill="#3AA1E4"/>
<path d="M202.784 148H217.622V162.8H202.784V148Z" fill="#3AA1E4"/>
<path d="M232.46 148H247.298V162.8H232.46V148Z" fill="#3AA1E4"/>
<path d="M187.946 148H202.784V162.8H187.946V148Z" fill="#3AA1E4"/>
<path d="M217.622 148H232.46V162.8H217.622V148Z" fill="#3AA1E4"/>
<path d="M247.298 148H262.135V162.8H247.298V148Z" fill="#3AA1E4"/>
<path d="M158.271 148H173.108V162.8H158.271V148Z" fill="#3AA1E4"/>
<path d="M187.946 148H202.784V162.8H187.946V148Z" fill="#3AA1E4"/>
<path d="M217.622 148H232.46V162.8H217.622V148Z" fill="#3AA1E4"/>
<path d="M173.108 148H187.946V162.8H173.108V148Z" fill="#3AA1E4"/>
<path d="M202.784 148H217.622V162.8H202.784V148Z" fill="#3AA1E4"/>
<path d="M232.46 148H247.298V162.8H232.46V148Z" fill="#3AA1E4"/>
<path d="M202.784 162.797H217.622V177.597H202.784V162.797Z" fill="#3AA1E4"/>
<path d="M232.46 162.797H247.297V177.597H232.46V162.797Z" fill="#3AA1E4"/>
<path d="M262.135 162.797H276.973V177.597H262.135V162.797Z" fill="#3AA1E4"/>
<path d="M217.622 162.797H232.46V177.597H217.622V162.797Z" fill="#3AA1E4"/>
<path d="M247.297 162.797H262.135V177.597H247.297V162.797Z" fill="#3AA1E4"/>
<path d="M276.973 162.797H291.811V177.597H276.973V162.797Z" fill="#3AA1E4"/>
<path d="M232.46 162.797H247.298V177.597H232.46V162.797Z" fill="#3AA1E4"/>
<path d="M262.135 162.797H276.973V177.597H262.135V162.797Z" fill="#3AA1E4"/>
<path d="M291.811 162.797H306.649V177.597H291.811V162.797Z" fill="#3AA1E4"/>
<path d="M247.298 162.797H262.135V177.597H247.298V162.797Z" fill="#3AA1E4"/>
<path d="M276.973 162.797H291.811V177.597H276.973V162.797Z" fill="#3AA1E4"/>
<path d="M306.649 162.797H321.487V177.597H306.649V162.797Z" fill="#3AA1E4"/>
<path d="M247.297 162.797H262.135V177.597H247.297V162.797Z" fill="#3AA1E4"/>
<path d="M276.973 162.797H291.811V177.597H276.973V162.797Z" fill="#3AA1E4"/>
<path d="M306.649 162.797H321.487V177.597H306.649V162.797Z" fill="#3AA1E4"/>
<path d="M262.135 162.797H276.973V177.597H262.135V162.797Z" fill="#3AA1E4"/>
<path d="M291.811 162.797H306.649V177.597H291.811V162.797Z" fill="#3AA1E4"/>
<path d="M321.487 162.797H336.324V177.597H321.487V162.797Z" fill="#3AA1E4"/>
<path d="M173.108 162.797H187.946V177.597H173.108V162.797Z" fill="#3AA1E4"/>
<path d="M202.784 162.797H217.622V177.597H202.784V162.797Z" fill="#3AA1E4"/>
<path d="M232.46 162.797H247.298V177.597H232.46V162.797Z" fill="#3AA1E4"/>
<path d="M187.946 162.797H202.784V177.597H187.946V162.797Z" fill="#3AA1E4"/>
<path d="M217.622 162.797H232.46V177.597H217.622V162.797Z" fill="#3AA1E4"/>
<path d="M247.298 162.797H262.135V177.597H247.298V162.797Z" fill="#3AA1E4"/>
<path d="M202.784 177.602H217.622V192.402H202.784V177.602Z" fill="#3AA1E4"/>
<path d="M232.46 177.602H247.297V192.402H232.46V177.602Z" fill="#3AA1E4"/>
<path d="M262.135 177.602H276.973V192.402H262.135V177.602Z" fill="#3AA1E4"/>
<path d="M217.622 177.602H232.46V192.402H217.622V177.602Z" fill="#3AA1E4"/>
<path d="M247.297 177.602H262.135V192.402H247.297V177.602Z" fill="#3AA1E4"/>
<path d="M276.973 177.602H291.811V192.402H276.973V177.602Z" fill="#3AA1E4"/>
<path d="M247.297 177.602H262.135V192.402H247.297V177.602Z" fill="#3AA1E4"/>
<path d="M276.973 177.602H291.811V192.402H276.973V177.602Z" fill="#3AA1E4"/>
<path d="M306.649 177.602H321.487V192.402H306.649V177.602Z" fill="#3AA1E4"/>
<path d="M262.135 177.602H276.973V192.402H262.135V177.602Z" fill="#3AA1E4"/>
<path d="M291.811 177.602H306.649V192.402H291.811V177.602Z" fill="#3AA1E4"/>
<path d="M321.487 177.602H336.324V192.402H321.487V177.602Z" fill="#3AA1E4"/>
<path d="M173.108 177.602H187.946V192.402H173.108V177.602Z" fill="#3AA1E4"/>
<path d="M202.784 177.602H217.622V192.402H202.784V177.602Z" fill="#3AA1E4"/>
<path d="M232.46 177.602H247.298V192.402H232.46V177.602Z" fill="#3AA1E4"/>
<path d="M187.946 177.602H202.784V192.402H187.946V177.602Z" fill="#3AA1E4"/>
<path d="M217.622 177.602H232.46V192.402H217.622V177.602Z" fill="#3AA1E4"/>
<path d="M247.298 177.602H262.135V192.402H247.298V177.602Z" fill="#3AA1E4"/>
<path d="M202.784 192.398H217.622V207.198H202.784V192.398Z" fill="#3AA1E4"/>
<path d="M232.46 192.398H247.297V207.198H232.46V192.398Z" fill="#3AA1E4"/>
<path d="M262.135 192.398H276.973V207.198H262.135V192.398Z" fill="#3AA1E4"/>
<path d="M217.622 192.398H232.46V207.198H217.622V192.398Z" fill="#3AA1E4"/>
<path d="M247.297 192.398H262.135V207.198H247.297V192.398Z" fill="#3AA1E4"/>
<path d="M276.973 192.398H291.811V207.198H276.973V192.398Z" fill="#3AA1E4"/>
<rect x="276.973" y="207.199" width="14.8378" height="14.8" fill="#2F3450"/>
<rect x="202.784" y="192.398" width="103.865" height="14.8" fill="#045E98"/>
<rect x="202.784" y="177.602" width="118.703" height="14.8" fill="#045E98"/>
<rect x="202.784" y="14.8008" width="103.865" height="14.8" fill="#4AADED"/>
<rect width="14.8" height="14.8378" transform="matrix(0 1 1 0 321.487 162.797)" fill="#045E98"/>
<rect x="187.946" y="162.797" width="14.8" height="14.8378" transform="rotate(90 187.946 162.797)" fill="#045E98"/>
<rect width="14.8" height="14.8378" transform="matrix(0 1 1 0 336.324 148)" fill="#045E98"/>
<rect x="173.108" y="148" width="14.8" height="14.8378" transform="rotate(90 173.108 148)" fill="#045E98"/>
<rect x="187.946" y="177.602" width="14.8" height="14.8378" transform="rotate(90 187.946 177.602)" fill="#045E98"/>
<rect x="202.784" y="177.602" width="14.8" height="14.8378" transform="rotate(90 202.784 177.602)" fill="#045E98"/>
<rect x="202.784" y="29.6016" width="14.8" height="14.8378" transform="rotate(90 202.784 29.6016)" fill="#83CBFA"/>
<rect x="187.946" y="44.3984" width="14.8" height="14.8378" transform="rotate(90 187.946 44.3984)" fill="#83CBFA"/>
<rect width="14.8" height="14.8378" transform="matrix(0 1 1 0 321.487 177.602)" fill="#045E98"/>
</svg>
