<svg width="366" height="222" viewBox="0 0 366 222" fill="none" xmlns="http://www.w3.org/2000/svg">
<path d="M306.648 177.602H59.3516V162.805H29.6758V177.604H59.3516V192.401H306.648V177.604H336.324V162.805H306.648V177.602ZM336.324 162.8H351.162V133.203H336.324V162.8ZM14.8379 133.203V162.8H29.6758V133.203H14.8379ZM351.162 133.202H366V118.402H351.162V133.202ZM0 118.402V133.202H14.8379V118.402H0ZM351.162 118.401H366V88.8047H351.162V118.401ZM0 88.8047V118.401H14.8379V88.8047H0ZM336.324 88.7998H351.162V59.2031H336.324V88.7998ZM14.8379 59.2031V88.7998H29.6758V59.2031H14.8379ZM306.648 59.2021H336.324V44.4023H306.648V59.2021ZM29.6758 44.4023V59.2021H59.3516V44.4023H29.6758ZM59.3516 29.6016V44.4014H306.648V29.6016H59.3516Z" fill="#2F3450"/>
<path d="M59.3516 162.805V177.604H306.648V162.805H59.3516ZM29.6758 162.8H336.324V133.203H29.6758V162.8ZM14.8379 133.202H351.162V118.402H14.8379V133.202ZM14.8379 118.401H351.162V88.8047H14.8379V118.401ZM29.6758 88.7998H336.324V59.2031H29.6758V88.7998ZM59.3516 59.2021H306.648V44.4023H59.3516V59.2021Z" fill="#C4C5D7"/>
<path d="M59.3513 162.801H185.473V177.601H59.3513V162.801Z" fill="#ABADC7"/>
<path d="M59.3513 44.4023H185.473V59.2023H59.3513V44.4023Z" fill="#C9CADC"/>
<path d="M29.6758 148H59.3515V162.8H29.6758V148Z" fill="#ABADC7"/>
<path d="M29.6758 59.2031H59.3515V74.0031H29.6758V59.2031Z" fill="#C9CADC"/>
<path d="M29.6758 133.203H44.5136V148.003H29.6758V133.203Z" fill="#ABADC7"/>
<path d="M336.324 133.203H321.486V148.003H336.324V133.203Z" fill="#ABADC7"/>
<path d="M14.8379 118.402H29.6757V133.202H14.8379V118.402Z" fill="#ABADC7"/>
<path d="M351.162 118.402H336.324V133.202H351.162V118.402Z" fill="#ABADC7"/>
<path d="M306.649 148H336.324V162.8H306.649V148Z" fill="#ABADC7"/>
<path d="M306.649 162.801H180.527V177.601H306.649V162.801Z" fill="#ABADC7"/>
<path d="M306.649 44.4023H180.527V59.2023H306.649V44.4023Z" fill="#C9CADC"/>
<rect x="59.3513" y="207.199" width="14.8378" height="14.8" fill="#2F3450"/>
<rect x="29.6758" y="14.8008" width="14.8378" height="14.8" fill="#2F3450"/>
<rect x="29.6758" y="192.398" width="14.8378" height="14.8" fill="#2F3450"/>
<rect x="29.6758" y="29.6016" width="14.8" height="14.8378" transform="rotate(90 29.6758 29.6016)" fill="#2F3450"/>
<rect x="29.6758" y="162.801" width="14.8" height="14.8378" transform="rotate(90 29.6758 162.801)" fill="#2F3450"/>
<rect x="207.73" y="162.801" width="14.8" height="14.8378" transform="rotate(90 207.73 162.801)" fill="#2F3450"/>
<rect x="14.8379" y="88.8008" width="14.8" height="14.8378" transform="rotate(90 14.8379 88.8008)" fill="#2F3450"/>
<rect x="14.8379" y="74" width="14.8" height="14.8378" transform="rotate(90 14.8379 74)" fill="#2F3450"/>
<rect x="14.8379" y="59.1992" width="14.8" height="14.8378" transform="rotate(90 14.8379 59.1992)" fill="#2F3450"/>
<rect x="222.568" y="74" width="14.8" height="14.8378" transform="rotate(90 222.568 74)" fill="#2F3450"/>
<rect x="222.568" y="59.1992" width="14.8" height="14.8378" transform="rotate(90 222.568 59.1992)" fill="#2F3450"/>
<rect x="14.8379" y="118.398" width="14.8" height="14.8378" transform="rotate(90 14.8379 118.398)" fill="#2F3450"/>
<rect x="222.568" y="103.602" width="14.8" height="14.8378" transform="rotate(90 222.568 103.602)" fill="#2F3450"/>
<rect x="207.73" y="29.6016" width="14.8" height="14.8378" transform="rotate(90 207.73 29.6016)" fill="#2F3450"/>
<rect x="163.216" y="14.8008" width="14.8378" height="14.8" fill="#2F3450"/>
<rect x="148.378" y="14.8008" width="14.8378" height="14.8" fill="#3AA1E4"/>
<rect x="192.892" y="44.3984" width="14.8378" height="14.8" fill="#3AA1E4"/>
<rect x="163.216" y="192.398" width="14.8378" height="14.8" fill="#3AA1E4"/>
<rect x="163.216" y="192.398" width="14.8378" height="14.8" fill="#2F3450"/>
<rect x="148.378" y="207.199" width="14.8378" height="14.8" fill="#2F3450"/>
<rect x="148.378" y="192.398" width="14.8378" height="14.8" fill="#3AA1E4"/>
<rect x="89.0271" y="207.199" width="14.8378" height="14.8" fill="#2F3450"/>
<rect x="118.703" y="207.199" width="14.8378" height="14.8" fill="#2F3450"/>
<rect x="74.1892" y="207.199" width="14.8378" height="14.8" fill="#2F3450"/>
<rect x="44.5134" y="14.8008" width="14.8378" height="14.8" fill="#2F3450"/>
<rect x="44.5134" y="192.398" width="14.8378" height="14.8" fill="#2F3450"/>
<rect x="29.6758" y="44.3984" width="14.8" height="14.8378" transform="rotate(90 29.6758 44.3984)" fill="#2F3450"/>
<rect x="29.6758" y="177.602" width="14.8" height="14.8378" transform="rotate(90 29.6758 177.602)" fill="#2F3450"/>
<rect x="207.73" y="177.602" width="14.8" height="14.8378" transform="rotate(90 207.73 177.602)" fill="#2F3450"/>
<rect x="14.8379" y="103.602" width="14.8" height="14.8378" transform="rotate(90 14.8379 103.602)" fill="#2F3450"/>
<rect x="222.568" y="88.8008" width="14.8" height="14.8378" transform="rotate(90 222.568 88.8008)" fill="#2F3450"/>
<rect x="14.8379" y="133.199" width="14.8" height="14.8378" transform="rotate(90 14.8379 133.199)" fill="#2F3450"/>
<rect x="14.8379" y="148" width="14.8" height="14.8378" transform="rotate(90 14.8379 148)" fill="#2F3450"/>
<rect x="222.568" y="118.398" width="14.8" height="14.8378" transform="rotate(90 222.568 118.398)" fill="#2F3450"/>
<rect x="222.568" y="133.199" width="14.8" height="14.8378" transform="rotate(90 222.568 133.199)" fill="#2F3450"/>
<rect x="222.568" y="148" width="14.8" height="14.8378" transform="rotate(90 222.568 148)" fill="#2F3450"/>
<rect x="207.73" y="44.3984" width="14.8" height="14.8378" transform="rotate(90 207.73 44.3984)" fill="#2F3450"/>
<rect x="178.054" y="14.8008" width="14.8378" height="14.8" fill="#2F3450"/>
<rect x="178.054" y="192.398" width="14.8378" height="14.8" fill="#2F3450"/>
<rect x="103.865" y="207.199" width="14.8378" height="14.8" fill="#2F3450"/>
<path d="M148.378 0H163.216V14.8H148.378V0Z" fill="#2F3450"/>
<path d="M59.3513 0H74.1892V14.8H59.3513V0Z" fill="#2F3450"/>
<path d="M89.027 0H103.865V14.8H89.027V0Z" fill="#2F3450"/>
<path d="M118.703 0H133.541V14.8H118.703V0Z" fill="#2F3450"/>
<path d="M74.1892 0H89.027V14.8H74.1892V0Z" fill="#2F3450"/>
<path d="M103.865 0H118.703V14.8H103.865V0Z" fill="#2F3450"/>
<path d="M133.541 0H148.378V14.8H133.541V0Z" fill="#2F3450"/>
<path d="M56.8784 66.6016H71.7163V81.4016H56.8784V66.6016Z" fill="#3AA1E4"/>
<path d="M86.5541 66.6016H101.392V81.4016H86.5541V66.6016Z" fill="#3AA1E4"/>
<path d="M116.23 66.6016H131.068V81.4016H116.23V66.6016Z" fill="#3AA1E4"/>
<path d="M71.7163 66.6016H86.5541V81.4016H71.7163V66.6016Z" fill="#3AA1E4"/>
<path d="M101.392 66.6016H116.23V81.4016H101.392V66.6016Z" fill="#3AA1E4"/>
<path d="M131.068 66.6016H145.905V81.4016H131.068V66.6016Z" fill="#3AA1E4"/>
<path d="M59.3513 44.3984H74.1892V59.1984H59.3513V44.3984Z" fill="#3AA1E4"/>
<path d="M89.027 44.3984H103.865V59.1984H89.027V44.3984Z" fill="#3AA1E4"/>
<path d="M118.703 44.3984H133.541V59.1984H118.703V44.3984Z" fill="#3AA1E4"/>
<path d="M74.1892 44.3984H89.027V59.1984H74.1892V44.3984Z" fill="#3AA1E4"/>
<path d="M103.865 44.3984H118.703V59.1984H103.865V44.3984Z" fill="#3AA1E4"/>
<path d="M133.541 44.3984H148.378V59.1984H133.541V44.3984Z" fill="#3AA1E4"/>
<path d="M29.6758 44.3984H44.5136V59.1984H29.6758V44.3984Z" fill="#3AA1E4"/>
<path d="M59.3515 44.3984H74.1893V59.1984H59.3515V44.3984Z" fill="#3AA1E4"/>
<path d="M89.0271 44.3984H103.865V59.1984H89.0271V44.3984Z" fill="#3AA1E4"/>
<path d="M44.5136 44.3984H59.3515V59.1984H44.5136V44.3984Z" fill="#3AA1E4"/>
<path d="M74.1893 44.3984H89.0271V59.1984H74.1893V44.3984Z" fill="#3AA1E4"/>
<path d="M103.865 44.3984H118.703V59.1984H103.865V44.3984Z" fill="#3AA1E4"/>
<path d="M29.6758 29.6016H44.5136V44.4016H29.6758V29.6016Z" fill="#3AA1E4"/>
<path d="M59.3515 29.6016H74.1893V44.4016H59.3515V29.6016Z" fill="#3AA1E4"/>
<path d="M89.0271 29.6016H103.865V44.4016H89.0271V29.6016Z" fill="#3AA1E4"/>
<path d="M44.5136 29.6016H59.3515V44.4016H44.5136V29.6016Z" fill="#3AA1E4"/>
<path d="M74.1893 29.6016H89.0271V44.4016H74.1893V29.6016Z" fill="#3AA1E4"/>
<path d="M103.865 29.6016H118.703V44.4016H103.865V29.6016Z" fill="#3AA1E4"/>
<path d="M59.3513 14.8008H74.1892V29.6008H59.3513V14.8008Z" fill="#3AA1E4"/>
<path d="M89.027 14.8008H103.865V29.6008H89.027V14.8008Z" fill="#3AA1E4"/>
<path d="M118.703 14.8008H133.541V29.6008H118.703V14.8008Z" fill="#3AA1E4"/>
<path d="M74.1892 14.8008H89.027V29.6008H74.1892V14.8008Z" fill="#3AA1E4"/>
<path d="M103.865 14.8008H118.703V29.6008H103.865V14.8008Z" fill="#3AA1E4"/>
<path d="M133.541 14.8008H148.378V29.6008H133.541V14.8008Z" fill="#3AA1E4"/>
<path d="M103.865 29.6016H118.703V44.4016H103.865V29.6016Z" fill="#3AA1E4"/>
<path d="M133.54 29.6016H148.378V44.4016H133.54V29.6016Z" fill="#3AA1E4"/>
<path d="M163.216 29.6016H178.054V44.4016H163.216V29.6016Z" fill="#3AA1E4"/>
<path d="M118.703 29.6016H133.54V44.4016H118.703V29.6016Z" fill="#3AA1E4"/>
<path d="M148.378 29.6016H163.216V44.4016H148.378V29.6016Z" fill="#3AA1E4"/>
<path d="M178.054 29.6016H192.892V44.4016H178.054V29.6016Z" fill="#3AA1E4"/>
<path d="M89.0271 44.3984H103.865V59.1984H89.0271V44.3984Z" fill="#3AA1E4"/>
<path d="M118.703 44.3984H133.541V59.1984H118.703V44.3984Z" fill="#3AA1E4"/>
<path d="M148.378 44.3984H163.216V59.1984H148.378V44.3984Z" fill="#3AA1E4"/>
<path d="M103.865 44.3984H118.703V59.1984H103.865V44.3984Z" fill="#3AA1E4"/>
<path d="M133.541 44.3984H148.378V59.1984H133.541V44.3984Z" fill="#3AA1E4"/>
<path d="M163.216 44.3984H178.054V59.1984H163.216V44.3984Z" fill="#3AA1E4"/>
<path d="M103.865 44.3984H118.703V59.1984H103.865V44.3984Z" fill="#3AA1E4"/>
<path d="M133.54 44.3984H148.378V59.1984H133.54V44.3984Z" fill="#3AA1E4"/>
<path d="M163.216 44.3984H178.054V59.1984H163.216V44.3984Z" fill="#3AA1E4"/>
<path d="M118.703 44.3984H133.54V59.1984H118.703V44.3984Z" fill="#3AA1E4"/>
<path d="M148.378 44.3984H163.216V59.1984H148.378V44.3984Z" fill="#3AA1E4"/>
<path d="M178.054 44.3984H192.892V59.1984H178.054V44.3984Z" fill="#3AA1E4"/>
<path d="M59.3513 59.1992H74.1892V73.9992H59.3513V59.1992Z" fill="#3AA1E4"/>
<path d="M89.027 59.1992H103.865V73.9992H89.027V59.1992Z" fill="#3AA1E4"/>
<path d="M118.703 59.1992H133.541V73.9992H118.703V59.1992Z" fill="#3AA1E4"/>
<path d="M74.1892 59.1992H89.027V73.9992H74.1892V59.1992Z" fill="#3AA1E4"/>
<path d="M103.865 59.1992H118.703V73.9992H103.865V59.1992Z" fill="#3AA1E4"/>
<path d="M133.541 59.1992H148.378V73.9992H133.541V59.1992Z" fill="#3AA1E4"/>
<path d="M29.6758 59.1992H44.5136V73.9992H29.6758V59.1992Z" fill="#3AA1E4"/>
<path d="M59.3515 59.1992H74.1893V73.9992H59.3515V59.1992Z" fill="#3AA1E4"/>
<path d="M89.0271 59.1992H103.865V73.9992H89.0271V59.1992Z" fill="#3AA1E4"/>
<path d="M44.5136 59.1992H59.3515V73.9992H44.5136V59.1992Z" fill="#3AA1E4"/>
<path d="M74.1893 59.1992H89.0271V73.9992H74.1893V59.1992Z" fill="#3AA1E4"/>
<path d="M103.865 59.1992H118.703V73.9992H103.865V59.1992Z" fill="#3AA1E4"/>
<path d="M14.8379 59.1992H29.6757V73.9992H14.8379V59.1992Z" fill="#3AA1E4"/>
<path d="M44.5136 59.1992H59.3514V73.9992H44.5136V59.1992Z" fill="#3AA1E4"/>
<path d="M74.1892 59.1992H89.0271V73.9992H74.1892V59.1992Z" fill="#3AA1E4"/>
<path d="M29.6757 59.1992H44.5136V73.9992H29.6757V59.1992Z" fill="#3AA1E4"/>
<path d="M59.3514 59.1992H74.1892V73.9992H59.3514V59.1992Z" fill="#3AA1E4"/>
<path d="M89.0271 59.1992H103.865V73.9992H89.0271V59.1992Z" fill="#3AA1E4"/>
<path d="M89.0271 59.1992H103.865V73.9992H89.0271V59.1992Z" fill="#3AA1E4"/>
<path d="M118.703 59.1992H133.541V73.9992H118.703V59.1992Z" fill="#3AA1E4"/>
<path d="M148.378 59.1992H163.216V73.9992H148.378V59.1992Z" fill="#3AA1E4"/>
<path d="M103.865 59.1992H118.703V73.9992H103.865V59.1992Z" fill="#3AA1E4"/>
<path d="M133.541 59.1992H148.378V73.9992H133.541V59.1992Z" fill="#3AA1E4"/>
<path d="M163.216 59.1992H178.054V73.9992H163.216V59.1992Z" fill="#3AA1E4"/>
<path d="M118.703 59.1992H133.54V73.9992H118.703V59.1992Z" fill="#3AA1E4"/>
<path d="M148.378 59.1992H163.216V73.9992H148.378V59.1992Z" fill="#3AA1E4"/>
<path d="M178.054 59.1992H192.892V73.9992H178.054V59.1992Z" fill="#3AA1E4"/>
<path d="M133.54 59.1992H148.378V73.9992H133.54V59.1992Z" fill="#3AA1E4"/>
<path d="M163.216 59.1992H178.054V73.9992H163.216V59.1992Z" fill="#3AA1E4"/>
<path d="M192.892 59.1992H207.73V73.9992H192.892V59.1992Z" fill="#3AA1E4"/>
<path d="M59.3513 74H74.1892V88.8H59.3513V74Z" fill="#3AA1E4"/>
<path d="M89.027 74H103.865V88.8H89.027V74Z" fill="#3AA1E4"/>
<path d="M118.703 74H133.541V88.8H118.703V74Z" fill="#3AA1E4"/>
<path d="M74.1892 74H89.027V88.8H74.1892V74Z" fill="#3AA1E4"/>
<path d="M103.865 74H118.703V88.8H103.865V74Z" fill="#3AA1E4"/>
<path d="M133.541 74H148.378V88.8H133.541V74Z" fill="#3AA1E4"/>
<path d="M103.865 74H118.703V88.8H103.865V74Z" fill="#3AA1E4"/>
<path d="M133.54 74H148.378V88.8H133.54V74Z" fill="#3AA1E4"/>
<path d="M163.216 74H178.054V88.8H163.216V74Z" fill="#3AA1E4"/>
<path d="M118.703 74H133.54V88.8H118.703V74Z" fill="#3AA1E4"/>
<path d="M148.378 74H163.216V88.8H148.378V74Z" fill="#3AA1E4"/>
<path d="M178.054 74H192.892V88.8H178.054V74Z" fill="#3AA1E4"/>
<path d="M118.703 74H133.54V88.8H118.703V74Z" fill="#3AA1E4"/>
<path d="M148.378 74H163.216V88.8H148.378V74Z" fill="#3AA1E4"/>
<path d="M178.054 74H192.892V88.8H178.054V74Z" fill="#3AA1E4"/>
<path d="M133.54 74H148.378V88.8H133.54V74Z" fill="#3AA1E4"/>
<path d="M163.216 74H178.054V88.8H163.216V74Z" fill="#3AA1E4"/>
<path d="M192.892 74H207.73V88.8H192.892V74Z" fill="#3AA1E4"/>
<path d="M14.8379 74H29.6757V88.8H14.8379V74Z" fill="#3AA1E4"/>
<path d="M44.5136 74H59.3514V88.8H44.5136V74Z" fill="#3AA1E4"/>
<path d="M74.1892 74H89.0271V88.8H74.1892V74Z" fill="#3AA1E4"/>
<path d="M29.6757 74H44.5136V88.8H29.6757V74Z" fill="#3AA1E4"/>
<path d="M59.3514 74H74.1892V88.8H59.3514V74Z" fill="#3AA1E4"/>
<path d="M89.0271 74H103.865V88.8H89.0271V74Z" fill="#3AA1E4"/>
<path d="M59.3513 88.8008H74.1892V103.601H59.3513V88.8008Z" fill="#3AA1E4"/>
<path d="M89.027 88.8008H103.865V103.601H89.027V88.8008Z" fill="#3AA1E4"/>
<path d="M118.703 88.8008H133.541V103.601H118.703V88.8008Z" fill="#3AA1E4"/>
<path d="M74.1892 88.8008H89.027V103.601H74.1892V88.8008Z" fill="#3AA1E4"/>
<path d="M103.865 88.8008H118.703V103.601H103.865V88.8008Z" fill="#3AA1E4"/>
<path d="M133.541 88.8008H148.378V103.601H133.541V88.8008Z" fill="#3AA1E4"/>
<path d="M103.865 88.8008H118.703V103.601H103.865V88.8008Z" fill="#3AA1E4"/>
<path d="M133.54 88.8008H148.378V103.601H133.54V88.8008Z" fill="#3AA1E4"/>
<path d="M163.216 88.8008H178.054V103.601H163.216V88.8008Z" fill="#3AA1E4"/>
<path d="M118.703 88.8008H133.54V103.601H118.703V88.8008Z" fill="#3AA1E4"/>
<path d="M148.378 88.8008H163.216V103.601H148.378V88.8008Z" fill="#3AA1E4"/>
<path d="M178.054 88.8008H192.892V103.601H178.054V88.8008Z" fill="#3AA1E4"/>
<path d="M118.703 88.8008H133.54V103.601H118.703V88.8008Z" fill="#3AA1E4"/>
<path d="M148.378 88.8008H163.216V103.601H148.378V88.8008Z" fill="#3AA1E4"/>
<path d="M178.054 88.8008H192.892V103.601H178.054V88.8008Z" fill="#3AA1E4"/>
<path d="M133.54 88.8008H148.378V103.601H133.54V88.8008Z" fill="#3AA1E4"/>
<path d="M163.216 88.8008H178.054V103.601H163.216V88.8008Z" fill="#3AA1E4"/>
<path d="M192.892 88.8008H207.73V103.601H192.892V88.8008Z" fill="#3AA1E4"/>
<path d="M14.8379 88.8008H29.6757V103.601H14.8379V88.8008Z" fill="#3AA1E4"/>
<path d="M44.5136 88.8008H59.3514V103.601H44.5136V88.8008Z" fill="#3AA1E4"/>
<path d="M74.1892 88.8008H89.0271V103.601H74.1892V88.8008Z" fill="#3AA1E4"/>
<path d="M29.6757 88.8008H44.5136V103.601H29.6757V88.8008Z" fill="#3AA1E4"/>
<path d="M59.3514 88.8008H74.1892V103.601H59.3514V88.8008Z" fill="#3AA1E4"/>
<path d="M89.0271 88.8008H103.865V103.601H89.0271V88.8008Z" fill="#3AA1E4"/>
<path d="M59.3513 103.602H74.1892V118.402H59.3513V103.602Z" fill="#3AA1E4"/>
<path d="M89.027 103.602H103.865V118.402H89.027V103.602Z" fill="#3AA1E4"/>
<path d="M118.703 103.602H133.541V118.402H118.703V103.602Z" fill="#3AA1E4"/>
<path d="M74.1892 103.602H89.027V118.402H74.1892V103.602Z" fill="#3AA1E4"/>
<path d="M103.865 103.602H118.703V118.402H103.865V103.602Z" fill="#3AA1E4"/>
<path d="M133.541 103.602H148.378V118.402H133.541V103.602Z" fill="#3AA1E4"/>
<path d="M103.865 103.602H118.703V118.402H103.865V103.602Z" fill="#3AA1E4"/>
<path d="M133.54 103.602H148.378V118.402H133.54V103.602Z" fill="#3AA1E4"/>
<path d="M163.216 103.602H178.054V118.402H163.216V103.602Z" fill="#3AA1E4"/>
<path d="M118.703 103.602H133.54V118.402H118.703V103.602Z" fill="#3AA1E4"/>
<path d="M148.378 103.602H163.216V118.402H148.378V103.602Z" fill="#3AA1E4"/>
<path d="M178.054 103.602H192.892V118.402H178.054V103.602Z" fill="#3AA1E4"/>
<path d="M118.703 103.602H133.54V118.402H118.703V103.602Z" fill="#3AA1E4"/>
<path d="M148.378 103.602H163.216V118.402H148.378V103.602Z" fill="#3AA1E4"/>
<path d="M178.054 103.602H192.892V118.402H178.054V103.602Z" fill="#3AA1E4"/>
<path d="M133.54 103.602H148.378V118.402H133.54V103.602Z" fill="#3AA1E4"/>
<path d="M163.216 103.602H178.054V118.402H163.216V103.602Z" fill="#3AA1E4"/>
<path d="M192.892 103.602H207.73V118.402H192.892V103.602Z" fill="#3AA1E4"/>
<path d="M14.8379 103.602H29.6757V118.402H14.8379V103.602Z" fill="#3AA1E4"/>
<path d="M44.5136 103.602H59.3514V118.402H44.5136V103.602Z" fill="#3AA1E4"/>
<path d="M74.1892 103.602H89.0271V118.402H74.1892V103.602Z" fill="#3AA1E4"/>
<path d="M29.6757 103.602H44.5136V118.402H29.6757V103.602Z" fill="#3AA1E4"/>
<path d="M59.3514 103.602H74.1892V118.402H59.3514V103.602Z" fill="#3AA1E4"/>
<path d="M89.0271 103.602H103.865V118.402H89.0271V103.602Z" fill="#3AA1E4"/>
<path d="M59.3513 118.398H74.1892V133.198H59.3513V118.398Z" fill="#3AA1E4"/>
<path d="M89.027 118.398H103.865V133.198H89.027V118.398Z" fill="#3AA1E4"/>
<path d="M118.703 118.398H133.541V133.198H118.703V118.398Z" fill="#3AA1E4"/>
<path d="M74.1892 118.398H89.027V133.198H74.1892V118.398Z" fill="#3AA1E4"/>
<path d="M103.865 118.398H118.703V133.198H103.865V118.398Z" fill="#3AA1E4"/>
<path d="M133.541 118.398H148.378V133.198H133.541V118.398Z" fill="#3AA1E4"/>
<path d="M103.865 118.398H118.703V133.198H103.865V118.398Z" fill="#3AA1E4"/>
<path d="M133.54 118.398H148.378V133.198H133.54V118.398Z" fill="#3AA1E4"/>
<path d="M163.216 118.398H178.054V133.198H163.216V118.398Z" fill="#3AA1E4"/>
<path d="M118.703 118.398H133.54V133.198H118.703V118.398Z" fill="#3AA1E4"/>
<path d="M148.378 118.398H163.216V133.198H148.378V118.398Z" fill="#3AA1E4"/>
<path d="M178.054 118.398H192.892V133.198H178.054V118.398Z" fill="#3AA1E4"/>
<path d="M118.703 118.398H133.54V133.198H118.703V118.398Z" fill="#3AA1E4"/>
<path d="M148.378 118.398H163.216V133.198H148.378V118.398Z" fill="#3AA1E4"/>
<path d="M178.054 118.398H192.892V133.198H178.054V118.398Z" fill="#3AA1E4"/>
<path d="M133.54 118.398H148.378V133.198H133.54V118.398Z" fill="#3AA1E4"/>
<path d="M163.216 118.398H178.054V133.198H163.216V118.398Z" fill="#3AA1E4"/>
<path d="M192.892 118.398H207.73V133.198H192.892V118.398Z" fill="#3AA1E4"/>
<path d="M14.8379 118.398H29.6757V133.198H14.8379V118.398Z" fill="#3AA1E4"/>
<path d="M44.5136 118.398H59.3514V133.198H44.5136V118.398Z" fill="#3AA1E4"/>
<path d="M74.1892 118.398H89.0271V133.198H74.1892V118.398Z" fill="#3AA1E4"/>
<path d="M29.6757 118.398H44.5136V133.198H29.6757V118.398Z" fill="#3AA1E4"/>
<path d="M59.3514 118.398H74.1892V133.198H59.3514V118.398Z" fill="#3AA1E4"/>
<path d="M89.0271 118.398H103.865V133.198H89.0271V118.398Z" fill="#3AA1E4"/>
<path d="M59.3513 133.199H74.1892V147.999H59.3513V133.199Z" fill="#3AA1E4"/>
<path d="M89.027 133.199H103.865V147.999H89.027V133.199Z" fill="#3AA1E4"/>
<path d="M118.703 133.199H133.541V147.999H118.703V133.199Z" fill="#3AA1E4"/>
<path d="M74.1892 133.199H89.027V147.999H74.1892V133.199Z" fill="#3AA1E4"/>
<path d="M103.865 133.199H118.703V147.999H103.865V133.199Z" fill="#3AA1E4"/>
<path d="M133.541 133.199H148.378V147.999H133.541V133.199Z" fill="#3AA1E4"/>
<path d="M103.865 133.199H118.703V147.999H103.865V133.199Z" fill="#3AA1E4"/>
<path d="M133.54 133.199H148.378V147.999H133.54V133.199Z" fill="#3AA1E4"/>
<path d="M163.216 133.199H178.054V147.999H163.216V133.199Z" fill="#3AA1E4"/>
<path d="M118.703 133.199H133.54V147.999H118.703V133.199Z" fill="#3AA1E4"/>
<path d="M148.378 133.199H163.216V147.999H148.378V133.199Z" fill="#3AA1E4"/>
<path d="M178.054 133.199H192.892V147.999H178.054V133.199Z" fill="#3AA1E4"/>
<path d="M118.703 133.199H133.54V147.999H118.703V133.199Z" fill="#3AA1E4"/>
<path d="M148.378 133.199H163.216V147.999H148.378V133.199Z" fill="#3AA1E4"/>
<path d="M178.054 133.199H192.892V147.999H178.054V133.199Z" fill="#3AA1E4"/>
<path d="M133.54 133.199H148.378V147.999H133.54V133.199Z" fill="#3AA1E4"/>
<path d="M163.216 133.199H178.054V147.999H163.216V133.199Z" fill="#3AA1E4"/>
<path d="M192.892 133.199H207.73V147.999H192.892V133.199Z" fill="#3AA1E4"/>
<path d="M14.8379 133.199H29.6757V147.999H14.8379V133.199Z" fill="#3AA1E4"/>
<path d="M44.5136 133.199H59.3514V147.999H44.5136V133.199Z" fill="#3AA1E4"/>
<path d="M74.1892 133.199H89.0271V147.999H74.1892V133.199Z" fill="#3AA1E4"/>
<path d="M29.6757 133.199H44.5136V147.999H29.6757V133.199Z" fill="#3AA1E4"/>
<path d="M59.3514 133.199H74.1892V147.999H59.3514V133.199Z" fill="#3AA1E4"/>
<path d="M89.0271 133.199H103.865V147.999H89.0271V133.199Z" fill="#3AA1E4"/>
<path d="M59.3513 148H74.1892V162.8H59.3513V148Z" fill="#3AA1E4"/>
<path d="M89.027 148H103.865V162.8H89.027V148Z" fill="#3AA1E4"/>
<path d="M118.703 148H133.541V162.8H118.703V148Z" fill="#3AA1E4"/>
<path d="M74.1892 148H89.027V162.8H74.1892V148Z" fill="#3AA1E4"/>
<path d="M103.865 148H118.703V162.8H103.865V148Z" fill="#3AA1E4"/>
<path d="M133.541 148H148.378V162.8H133.541V148Z" fill="#3AA1E4"/>
<path d="M89.0271 148H103.865V162.8H89.0271V148Z" fill="#3AA1E4"/>
<path d="M118.703 148H133.541V162.8H118.703V148Z" fill="#3AA1E4"/>
<path d="M148.378 148H163.216V162.8H148.378V148Z" fill="#3AA1E4"/>
<path d="M103.865 148H118.703V162.8H103.865V148Z" fill="#3AA1E4"/>
<path d="M133.541 148H148.378V162.8H133.541V148Z" fill="#3AA1E4"/>
<path d="M163.216 148H178.054V162.8H163.216V148Z" fill="#3AA1E4"/>
<path d="M118.703 148H133.54V162.8H118.703V148Z" fill="#3AA1E4"/>
<path d="M148.378 148H163.216V162.8H148.378V148Z" fill="#3AA1E4"/>
<path d="M178.054 148H192.892V162.8H178.054V148Z" fill="#3AA1E4"/>
<path d="M133.54 148H148.378V162.8H133.54V148Z" fill="#3AA1E4"/>
<path d="M163.216 148H178.054V162.8H163.216V148Z" fill="#3AA1E4"/>
<path d="M192.892 148H207.73V162.8H192.892V148Z" fill="#3AA1E4"/>
<path d="M29.6758 148H44.5136V162.8H29.6758V148Z" fill="#3AA1E4"/>
<path d="M59.3515 148H74.1893V162.8H59.3515V148Z" fill="#3AA1E4"/>
<path d="M89.0271 148H103.865V162.8H89.0271V148Z" fill="#3AA1E4"/>
<path d="M44.5136 148H59.3515V162.8H44.5136V148Z" fill="#3AA1E4"/>
<path d="M74.1893 148H89.0271V162.8H74.1893V148Z" fill="#3AA1E4"/>
<path d="M103.865 148H118.703V162.8H103.865V148Z" fill="#3AA1E4"/>
<path d="M14.8379 148H29.6757V162.8H14.8379V148Z" fill="#3AA1E4"/>
<path d="M44.5136 148H59.3514V162.8H44.5136V148Z" fill="#3AA1E4"/>
<path d="M74.1892 148H89.0271V162.8H74.1892V148Z" fill="#3AA1E4"/>
<path d="M29.6757 148H44.5136V162.8H29.6757V148Z" fill="#3AA1E4"/>
<path d="M59.3514 148H74.1892V162.8H59.3514V148Z" fill="#3AA1E4"/>
<path d="M89.0271 148H103.865V162.8H89.0271V148Z" fill="#3AA1E4"/>
<path d="M59.3513 162.801H74.1892V177.601H59.3513V162.801Z" fill="#3AA1E4"/>
<path d="M89.027 162.801H103.865V177.601H89.027V162.801Z" fill="#3AA1E4"/>
<path d="M118.703 162.801H133.541V177.601H118.703V162.801Z" fill="#3AA1E4"/>
<path d="M74.1892 162.801H89.027V177.601H74.1892V162.801Z" fill="#3AA1E4"/>
<path d="M103.865 162.801H118.703V177.601H103.865V162.801Z" fill="#3AA1E4"/>
<path d="M133.541 162.801H148.378V177.601H133.541V162.801Z" fill="#3AA1E4"/>
<path d="M89.0271 162.801H103.865V177.601H89.0271V162.801Z" fill="#3AA1E4"/>
<path d="M118.703 162.801H133.541V177.601H118.703V162.801Z" fill="#3AA1E4"/>
<path d="M148.378 162.801H163.216V177.601H148.378V162.801Z" fill="#3AA1E4"/>
<path d="M103.865 162.801H118.703V177.601H103.865V162.801Z" fill="#3AA1E4"/>
<path d="M133.541 162.801H148.378V177.601H133.541V162.801Z" fill="#3AA1E4"/>
<path d="M163.216 162.801H178.054V177.601H163.216V162.801Z" fill="#3AA1E4"/>
<path d="M103.865 162.801H118.703V177.601H103.865V162.801Z" fill="#3AA1E4"/>
<path d="M133.54 162.801H148.378V177.601H133.54V162.801Z" fill="#3AA1E4"/>
<path d="M163.216 162.801H178.054V177.601H163.216V162.801Z" fill="#3AA1E4"/>
<path d="M118.703 162.801H133.54V177.601H118.703V162.801Z" fill="#3AA1E4"/>
<path d="M148.378 162.801H163.216V177.601H148.378V162.801Z" fill="#3AA1E4"/>
<path d="M178.054 162.801H192.892V177.601H178.054V162.801Z" fill="#3AA1E4"/>
<path d="M29.6758 162.801H44.5136V177.601H29.6758V162.801Z" fill="#3AA1E4"/>
<path d="M59.3515 162.801H74.1893V177.601H59.3515V162.801Z" fill="#3AA1E4"/>
<path d="M89.0271 162.801H103.865V177.601H89.0271V162.801Z" fill="#3AA1E4"/>
<path d="M44.5136 162.801H59.3515V177.601H44.5136V162.801Z" fill="#3AA1E4"/>
<path d="M74.1893 162.801H89.0271V177.601H74.1893V162.801Z" fill="#3AA1E4"/>
<path d="M103.865 162.801H118.703V177.601H103.865V162.801Z" fill="#3AA1E4"/>
<path d="M59.3513 177.602H74.1892V192.402H59.3513V177.602Z" fill="#3AA1E4"/>
<path d="M89.027 177.602H103.865V192.402H89.027V177.602Z" fill="#3AA1E4"/>
<path d="M118.703 177.602H133.541V192.402H118.703V177.602Z" fill="#3AA1E4"/>
<path d="M74.1892 177.602H89.027V192.402H74.1892V177.602Z" fill="#3AA1E4"/>
<path d="M103.865 177.602H118.703V192.402H103.865V177.602Z" fill="#3AA1E4"/>
<path d="M133.541 177.602H148.378V192.402H133.541V177.602Z" fill="#3AA1E4"/>
<path d="M103.865 177.602H118.703V192.402H103.865V177.602Z" fill="#3AA1E4"/>
<path d="M133.54 177.602H148.378V192.402H133.54V177.602Z" fill="#3AA1E4"/>
<path d="M163.216 177.602H178.054V192.402H163.216V177.602Z" fill="#3AA1E4"/>
<path d="M118.703 177.602H133.54V192.402H118.703V177.602Z" fill="#3AA1E4"/>
<path d="M148.378 177.602H163.216V192.402H148.378V177.602Z" fill="#3AA1E4"/>
<path d="M178.054 177.602H192.892V192.402H178.054V177.602Z" fill="#3AA1E4"/>
<path d="M29.6758 177.602H44.5136V192.402H29.6758V177.602Z" fill="#3AA1E4"/>
<path d="M59.3515 177.602H74.1893V192.402H59.3515V177.602Z" fill="#3AA1E4"/>
<path d="M89.0271 177.602H103.865V192.402H89.0271V177.602Z" fill="#3AA1E4"/>
<path d="M44.5136 177.602H59.3515V192.402H44.5136V177.602Z" fill="#3AA1E4"/>
<path d="M74.1893 177.602H89.0271V192.402H74.1893V177.602Z" fill="#3AA1E4"/>
<path d="M103.865 177.602H118.703V192.402H103.865V177.602Z" fill="#3AA1E4"/>
<path d="M59.3513 192.398H74.1892V207.198H59.3513V192.398Z" fill="#3AA1E4"/>
<path d="M89.027 192.398H103.865V207.198H89.027V192.398Z" fill="#3AA1E4"/>
<path d="M118.703 192.398H133.541V207.198H118.703V192.398Z" fill="#3AA1E4"/>
<path d="M74.1892 192.398H89.027V207.198H74.1892V192.398Z" fill="#3AA1E4"/>
<path d="M103.865 192.398H118.703V207.198H103.865V192.398Z" fill="#3AA1E4"/>
<path d="M133.541 192.398H148.378V207.198H133.541V192.398Z" fill="#3AA1E4"/>
<rect x="133.541" y="207.199" width="14.8378" height="14.8" fill="#2F3450"/>
<rect x="59.3513" y="192.398" width="103.865" height="14.8" fill="#045E98"/>
<rect x="59.3513" y="177.602" width="118.703" height="14.8" fill="#045E98"/>
<rect x="59.3513" y="14.8008" width="103.865" height="14.8" fill="#4AADED"/>
<rect width="14.8" height="14.8378" transform="matrix(0 1 1 0 178.054 162.801)" fill="#045E98"/>
<rect x="44.5134" y="162.801" width="14.8" height="14.8378" transform="rotate(90 44.5134 162.801)" fill="#045E98"/>
<rect width="14.8" height="14.8378" transform="matrix(0 1 1 0 192.892 148)" fill="#045E98"/>
<rect x="29.6758" y="148" width="14.8" height="14.8378" transform="rotate(90 29.6758 148)" fill="#045E98"/>
<rect x="44.5134" y="177.602" width="14.8" height="14.8378" transform="rotate(90 44.5134 177.602)" fill="#045E98"/>
<rect x="59.3513" y="177.602" width="14.8" height="14.8378" transform="rotate(90 59.3513 177.602)" fill="#045E98"/>
<rect x="59.3513" y="29.6016" width="14.8" height="14.8378" transform="rotate(90 59.3513 29.6016)" fill="#83CBFA"/>
<rect x="44.5134" y="44.3984" width="14.8" height="14.8378" transform="rotate(90 44.5134 44.3984)" fill="#83CBFA"/>
<rect width="14.8" height="14.8378" transform="matrix(0 1 1 0 178.054 177.602)" fill="#045E98"/>
</svg>
